<svg xmlns="http://www.w3.org/2000/svg" width="32" height="32" viewBox="0 0 32 32"><path d="m 16,2.5 c 4.712091,0 8.499991,3.637375 8.5,8.109375 0,3.7172 -1.145028,5.193422 -2.376953,6.607422 C 21.38247,18.066889 20.5911,18.917782 20.072266,20.111328 19.35684,18.572895 17.807712,17.5 16,17.5 c -1.807712,0 -3.35684,1.072895 -4.072266,2.611328 C 11.4089,18.917782 10.61753,18.066889 9.8769531,17.216797 8.6450276,15.802797 7.5,14.326575 7.5,10.609375 7.5000094,6.137375 11.287909,2.5 16,2.5 Z m 0,16 c 1.947649,0 3.5,1.5524 3.5,3.5 l 0,0.5 -7,0 0,-0.5 c 0,-1.9476 1.552351,-3.5 3.5,-3.5 z m -4,5 8,0 c 0.285656,0 0.5,0.2144 0.5,0.5 0,0.2857 -0.214344,0.5 -0.5,0.5 l -8,0 c -0.285656,0 -0.5,-0.2143 -0.5,-0.5 0,-0.2856 0.214344,-0.5 0.5,-0.5 z m 0.5,2 7,0 0,0.5 c 0,1.9477 -1.552351,3.5 -3.5,3.5 -1.947649,0 -3.5,-1.5523 -3.5,-3.5 z" color="#000" font-family="sans-serif" font-weight="400" overflow="visible" style="line-height:normal;text-indent:0;text-align:start;text-decoration-line:none;text-decoration-style:solid;text-decoration-color:#000;text-transform:none;block-progression:tb;isolation:auto;mix-blend-mode:normal"/></svg>