<svg xmlns="http://www.w3.org/2000/svg" viewBox="0 0 24 24"><path fill="#2D98D4" d="M1 16h4v1H1zM3 14h2v1H3zM3 12h2v1H3zM1 10h4v1H1zM1 4h4v1H1zM3 8h2v1H3zM3 6h2v1H3zM16.5 16h-1a2.503 2.503 0 01-2.5-2.5v-4C13 8.122 14.122 7 15.5 7h1C17.878 7 19 8.122 19 9.5v.5h-1v-.5c0-.827-.673-1.5-1.5-1.5h-1c-.827 0-1.5.673-1.5 1.5v4c0 .827.673 1.5 1.5 1.5h1c.827 0 1.5-.673 1.5-1.5h1c0 1.378-1.122 2.5-2.5 2.5zM21.5 10c-.827 0-1.5-.673-1.5-1.5S20.673 7 21.5 7s1.5.673 1.5 1.5-.673 1.5-1.5 1.5zm0-2a.5.5 0 100 1 .5.5 0 000-1z"/><path fill="#2D98D4" d="M18 13h1v.5h-1z"/><path fill="#F3F3F3" d="M11 18.066V2.5C11 1.122 9.878 0 8.5 0S6 1.122 6 2.5v15.566c-.638.654-1 1.53-1 2.434C5 22.43 6.57 24 8.5 24s3.5-1.57 3.5-3.5c0-.905-.362-1.78-1-2.434z"/><path fill="#010101" d="M8.5 23.75a3.507 3.507 0 0 1-3.498-3.376A3.504 3.504 0 0 0 8.5 24a3.504 3.504 0 0 0 3.498-3.626A3.507 3.507 0 0 1 8.5 23.75z" opacity=".1"/><path fill="#FFF" d="M8.5.25c1.378 0 2.5 1.122 2.5 2.5V2.5C11 1.122 9.878 0 8.5 0S6 1.122 6 2.5v.25C6 1.372 7.122.25 8.5.25z" opacity=".2"/><path fill="#E93829" d="M9.238 19.201C9.081 19.111 9 18.93 9 18.75V10a.5.5 0 1 0-1 0v8.749c0 .18-.08.363-.238.452-.454.257-.762.741-.762 1.299 0 .827.673 1.5 1.5 1.5s1.5-.673 1.5-1.5c0-.558-.308-1.042-.762-1.299z"/><path fill="#FFF" d="M6 2.5v15.566c-.638.654-1 1.53-1 2.434C5 22.43 6.57 24 8.5 24V0A2.503 2.503 0 0 0 6 2.5z" opacity=".2"/><linearGradient id="a" x1="-.744" x2="19.177" y1="7.741" y2="17.03" gradientUnits="userSpaceOnUse"><stop offset="0" stop-color="#FFF" stop-opacity=".2"/><stop offset="1" stop-color="#FFF" stop-opacity="0"/></linearGradient><path fill="url(#a)" d="M5 10H1v1h4v-1zm0 2H3v1h2v-1zM3 9h2V8H3v1zm2-5H1v1h4V4zm0 2H3v1h2V6zm16.5 1c-.827 0-1.5.673-1.5 1.5s.673 1.5 1.5 1.5S23 9.327 23 8.5 22.327 7 21.5 7zm0 2a.5.5 0 1 1 0-1 .5.5 0 0 1 0 1zM3 15h2v-1H3v1zm13.5-8h-1A2.503 2.503 0 0 0 13 9.5v4c0 1.378 1.122 2.5 2.5 2.5h1c1.378 0 2.5-1.122 2.5-2.5V13h-1v.5c0 .827-.673 1.5-1.5 1.5h-1c-.827 0-1.5-.673-1.5-1.5v-4c0-.827.673-1.5 1.5-1.5h1c.827 0 1.5.673 1.5 1.5v.5h1v-.5C19 8.122 17.878 7 16.5 7zM11 2.5C11 1.122 9.878 0 8.5 0S6 1.122 6 2.5v15.566c-.638.654-1 1.53-1 2.434C5 22.43 6.57 24 8.5 24s3.5-1.57 3.5-3.5c0-.905-.362-1.78-1-2.434V2.5zM5 16H1v1h4v-1z"/></svg>